<svg xmlns="http://www.w3.org/2000/svg" xmlns:xlink="http://www.w3.org/1999/xlink" width="500" zoomAndPan="magnify" viewBox="0 0 375 374.999991" height="500" preserveAspectRatio="xMidYMid meet" version="1.0"><defs><clipPath id="26499755e2"><path d="M 138 106 L 328 106 L 328 315 L 138 315 Z M 138 106 " clip-rule="nonzero"/></clipPath><clipPath id="f3f630f34b"><path d="M -2.070312 125.050781 L 273.28125 7.867188 L 376.367188 250.09375 L 101.011719 367.277344 Z M -2.070312 125.050781 " clip-rule="nonzero"/></clipPath><clipPath id="07b1257806"><path d="M -2.070312 125.050781 L 273.28125 7.867188 L 376.367188 250.09375 L 101.011719 367.277344 Z M -2.070312 125.050781 " clip-rule="nonzero"/></clipPath><clipPath id="5d97887027"><path d="M -2.070312 125.050781 L 273.28125 7.867188 L 376.367188 250.09375 L 101.011719 367.277344 Z M -2.070312 125.050781 " clip-rule="nonzero"/></clipPath><clipPath id="dce388dceb"><path d="M 46 60 L 236 60 L 236 270 L 46 270 Z M 46 60 " clip-rule="nonzero"/></clipPath><clipPath id="f21ac529f3"><path d="M -2.070312 125.050781 L 273.28125 7.867188 L 376.367188 250.09375 L 101.011719 367.277344 Z M -2.070312 125.050781 " clip-rule="nonzero"/></clipPath><clipPath id="b1bf834778"><path d="M -2.070312 125.050781 L 273.28125 7.867188 L 376.367188 250.09375 L 101.011719 367.277344 Z M -2.070312 125.050781 " clip-rule="nonzero"/></clipPath><clipPath id="40c7cf7f5a"><path d="M -2.070312 125.050781 L 273.28125 7.867188 L 376.367188 250.09375 L 101.011719 367.277344 Z M -2.070312 125.050781 " clip-rule="nonzero"/></clipPath></defs><g clip-path="url(#26499755e2)"><g clip-path="url(#f3f630f34b)"><g clip-path="url(#07b1257806)"><g clip-path="url(#5d97887027)"><path fill="#000000" d="M 327.640625 135.59375 L 288.378906 106.039062 L 282.457031 154.824219 L 294.007812 149.910156 C 297.234375 158.15625 299.941406 166.636719 301.339844 175.488281 C 302.855469 186.746094 302.894531 198.253906 301.359375 209.6875 C 297.773438 232.445312 287.5625 254.441406 271.558594 271.832031 C 255.5625 289.105469 234.238281 301.992188 210.675781 307.566406 C 187.175781 313.242188 161.6875 311.636719 138.519531 302.863281 C 160.910156 313.433594 186.769531 317.304688 211.8125 313.324219 C 236.878906 309.449219 260.808594 297.691406 279.867188 280.121094 C 298.898438 262.464844 312.457031 238.851562 318.625 213.050781 C 321.453125 200.097656 322.507812 186.722656 321.742188 173.324219 C 320.902344 162.332031 318.378906 151.53125 315.0625 140.949219 Z M 327.640625 135.59375 " fill-opacity="1" fill-rule="nonzero"/></g></g></g></g><g clip-path="url(#dce388dceb)"><g clip-path="url(#f21ac529f3)"><g clip-path="url(#b1bf834778)"><g clip-path="url(#40c7cf7f5a)"><path fill="#000000" d="M 72.9375 165.441406 C 76.523438 142.683594 86.734375 120.6875 102.738281 103.296875 C 118.734375 86.023438 140.058594 73.136719 163.621094 67.5625 C 187.121094 61.890625 212.609375 63.492188 235.777344 72.269531 C 213.386719 61.695312 187.527344 57.824219 162.484375 61.808594 C 137.417969 65.679688 113.488281 77.441406 94.429688 95.007812 C 75.398438 112.667969 61.839844 136.28125 55.671875 162.082031 C 52.84375 175.03125 51.789062 188.410156 52.554688 201.804688 C 53.394531 212.800781 55.917969 223.597656 59.234375 234.183594 L 46.65625 239.535156 L 85.917969 269.089844 L 91.839844 220.308594 L 80.289062 225.222656 C 77.0625 216.972656 74.355469 208.492188 72.957031 199.644531 C 71.441406 188.386719 71.402344 176.875 72.9375 165.441406 Z M 72.9375 165.441406 " fill-opacity="1" fill-rule="nonzero"/></g></g></g></g></svg>