<svg xmlns="http://www.w3.org/2000/svg" xmlns:xlink="http://www.w3.org/1999/xlink" width="500" zoomAndPan="magnify" viewBox="0 0 375 374.999991" height="500" preserveAspectRatio="xMidYMid meet" version="1.0"><defs><clipPath id="a5afe86124"><path d="M 138 105 L 328 105 L 328 315 L 138 315 Z M 138 105 " clip-rule="nonzero"/></clipPath><clipPath id="a4d66e1ee9"><path d="M -2.070312 125.050781 L 273.28125 7.867188 L 376.367188 250.09375 L 101.011719 367.277344 Z M -2.070312 125.050781 " clip-rule="nonzero"/></clipPath><clipPath id="110d55ab96"><path d="M -2.070312 125.050781 L 273.28125 7.867188 L 376.367188 250.09375 L 101.011719 367.277344 Z M -2.070312 125.050781 " clip-rule="nonzero"/></clipPath><clipPath id="6e4cd2b856"><path d="M 46 60 L 236 60 L 236 270 L 46 270 Z M 46 60 " clip-rule="nonzero"/></clipPath><clipPath id="c3afc2fc9b"><path d="M -2.070312 125.050781 L 273.28125 7.867188 L 376.367188 250.09375 L 101.011719 367.277344 Z M -2.070312 125.050781 " clip-rule="nonzero"/></clipPath><clipPath id="44f795afd2"><path d="M -2.070312 125.050781 L 273.28125 7.867188 L 376.367188 250.09375 L 101.011719 367.277344 Z M -2.070312 125.050781 " clip-rule="nonzero"/></clipPath></defs><g clip-path="url(#a5afe86124)"><g clip-path="url(#a4d66e1ee9)"><g clip-path="url(#110d55ab96)"><path fill="#fefefe" d="M 327.867188 135.464844 L 288.585938 105.929688 L 282.644531 154.710938 L 294.203125 149.792969 C 297.429688 158.039062 300.132812 166.519531 301.53125 175.367188 C 303.042969 186.625 303.078125 198.132812 301.535156 209.566406 C 297.941406 232.320312 287.714844 254.320312 271.691406 271.71875 C 255.679688 288.996094 234.332031 301.890625 210.753906 307.472656 C 187.234375 313.15625 161.726562 311.5625 138.546875 302.796875 C 160.953125 313.359375 186.824219 317.222656 211.886719 313.230469 C 236.972656 309.347656 260.925781 297.578125 280.003906 280.003906 C 299.054688 262.339844 312.632812 238.722656 318.8125 212.917969 C 321.648438 199.96875 322.707031 186.59375 321.949219 173.195312 C 321.109375 162.203125 318.59375 151.40625 315.277344 140.824219 Z M 327.867188 135.464844 " fill-opacity="1" fill-rule="nonzero"/></g></g></g><g clip-path="url(#6e4cd2b856)"><g clip-path="url(#c3afc2fc9b)"><g clip-path="url(#44f795afd2)"><path fill="#fefefe" d="M 72.976562 165.410156 C 76.570312 142.652344 86.796875 120.652344 102.816406 103.257812 C 118.832031 85.976562 140.175781 73.085938 163.757812 67.503906 C 187.277344 61.820312 212.78125 63.414062 235.964844 72.179688 C 213.558594 61.617188 187.6875 57.753906 162.625 61.746094 C 137.539062 65.628906 113.585938 77.398438 94.507812 94.972656 C 75.457031 112.636719 61.878906 136.253906 55.699219 162.058594 C 52.863281 175.007812 51.804688 188.382812 52.5625 201.78125 C 53.398438 212.773438 55.917969 223.570312 59.234375 234.152344 L 46.644531 239.511719 L 85.921875 269.046875 L 91.867188 220.265625 L 80.308594 225.183594 C 77.078125 216.9375 74.378906 208.457031 72.980469 199.609375 C 71.46875 188.351562 71.433594 176.84375 72.976562 165.410156 Z M 72.976562 165.410156 " fill-opacity="1" fill-rule="nonzero"/></g></g></g></svg>